:SAMPLES-PER-SECOND 24
:FULLY-SPECIFIED
:DEGREES
44
root  1.9506 38.6908 23.6296 172.5 -38.2758 173.65
RightUpLeg  -13.8219 -16.4437 -10.1541
RightLeg  21.6464 -2.22331 -1.20101
RightFoot  -1.45485 -0.256903 2.85417
RightToes  -1.74623e-010 0 -2.59999e-017
Spine  1.51913 -5.43216 -6.19643
Spine1  16.1525 -6.10715 3.06751
HEad  2.77786 -14.826 0.611707
LeftShoulder1  1.46299 -2.49683 -17.7578
LeftArm  30.0431 -32.8277 -76.0255
LeftForeArm  125.972 -75.2278 -135.268
LeftHand  -0.0673622 5.0665 22.3461
RightShoulder  2.67945 4.93511 25.7122
RightArm  -1.04302 -4.44065 34.6979
RightForeArm  55.3055 77.0307 48.9469
RightHand  -0.144933 -3.55403 -8.09937
LeftUpLeg  8.63553 12.9754 13.3105
LeftLeg  51.2322 4.89495 6.96215
LeftFoot  8.91001 0.152135 -1.12513
LeftToes  -6.27559e-011 -2.10356e-011 8.24929e-012
45
root  2.01625 38.603 25.309 174.844 -45.5773 172.981
RightUpLeg  -14.4814 -17.9054 -13.1705
RightLeg  19.1811 -3.82369 -1.60731
RightFoot  -0.92426 -0.30778 3.30532
RightToes  -1.74623e-010 0 -2.59999e-017
Spine  2.35253 -6.40542 -8.64472
Spine1  16.2713 -8.01838 5.38863
HEad  0.251274 -18.4275 2.68369
LeftShoulder1  1.48588 -2.58669 -17.776
LeftArm  34.8391 -34.9048 -77.5034
LeftForeArm  123.716 -75.7272 -133.126
LeftHand  -0.0951947 4.92592 22.5583
RightShoulder  2.6592 4.89221 25.6298
RightArm  -1.33415 -3.9564 35.4503
RightForeArm  22.5296 63.1942 20.5868
RightHand  -0.443129 -0.848153 -11.2902
LeftUpLeg  12.6794 10.2557 14.539
LeftLeg  40.6667 8.72271 8.32679
LeftFoot  7.97588 -0.284207 1.38434
LeftToes  -6.27559e-011 -2.10356e-011 8.24929e-012
46
root  2.12873 38.3383 27.2583 178.23 -52.2467 171.698
RightUpLeg  -15.8073 -18.2633 -16.5315
RightLeg  16.7589 -6.73124 -1.93506
RightFoot  -0.314418 -0.162379 1.65711
RightToes  -1.74623e-010 0 -2.59999e-017
Spine  3.42916 -6.74474 -8.98607
Spine1  16.1526 -8.72329 5.72762
HEad  -3.86962 -22.9691 5.88204
LeftShoulder1  1.53005 -2.74254 -17.8821
LeftArm  40.3307 -37.9686 -79.5238
LeftForeArm  120.369 -75.9907 -131.441
LeftHand  -0.110293 4.8675 23.6354
RightShoulder  2.6912 4.91873 25.9222
RightArm  -1.43178 -1.88752 35.5453
RightForeArm  6.07668 45.4973 10.8641
RightHand  -0.757757 1.07177 -13.7212
LeftUpLeg  13.7988 6.78356 14.2156
LeftLeg  32.7657 10.845 7.80979
LeftFoot  7.06893 0.771075 -5.15928
LeftToes  -6.27559e-011 -2.10356e-011 8.24929e-012
47
root  2.26884 37.8036 29.3394 -177.133 -56.1006 169.29
RightUpLeg  -18.9075 -17.3135 -19.9474
RightLeg  15.5702 -7.61084 -2.29962
RightFoot  0.191906 -0.0892416 0.885722
RightToes  -1.74623e-010 0 -2.59999e-017
Spine  4.37244 -5.7633 -8.16931
Spine1  15.4058 -7.61562 4.20769
HEad  -8.85277 -27.5949 9.4341
LeftShoulder1  1.62077 -2.95147 -18.545
LeftArm  45.6159 -40.924 -82.0987
LeftForeArm  116.196 -76.2087 -129.658
LeftHand  -0.0724509 5.05507 23.6342
RightShoulder  2.7552 5.06143 26.1469
RightArm  2.75895 2.27112 34.4769
RightForeArm  -9.87117 26.4766 7.01256
RightHand  -0.865448 1.27903 -15.1869
LeftUpLeg  13.9702 6.9072 13.5368
LeftLeg  27.0088 6.46608 3.98294
LeftFoot  -1.71666 1.54479 -19.5111
LeftToes  -6.27559e-011 -2.10356e-011 8.24929e-012
48
root  2.50948 37.0416 31.5072 -172.147 -59.605 166.439
RightUpLeg  -21.471 -16.4054 -23.9899
RightLeg  14.1844 -10.012 -3.07759
RightFoot  1.84349 -0.0946424 0.937087
RightToes  -1.74623e-010 0 -2.59999e-017
Spine  5.08415 -4.55013 -8.18865
Spine1  15.9609 -6.60931 4.08468
HEad  -14.8888 -31.9409 13.8208
LeftShoulder1  1.65823 -3.10211 -18.5423
LeftArm  50.3994 -43.5414 -86.3598
LeftForeArm  111.688 -76.6672 -126.634
LeftHand  -0.0662724 5.0787 23.0601
RightShoulder  2.82967 5.26761 26.2442
RightArm  -11.0085 4.96675 31.8016
RightForeArm  -1.43523 9.9839 11.2741
RightHand  -0.568595 -0.965739 -14.8314
LeftUpLeg  10.6 10.7782 12.869
LeftLeg  27.157 -3.12874 -1.42529
LeftFoot  -15.1767 -0.749984 -24.9305
LeftToes  -6.27559e-011 -2.10356e-011 8.24929e-012
49
root  2.75357 36.5113 33.429 -167.875 -63.4646 163.772
RightUpLeg  -21.0345 -17.7367 -27.1845
RightLeg  10.2085 -12.1703 -3.01279
RightFoot  1.55811 0.139307 -1.13762
RightToes  -1.74623e-010 0 -2.59999e-017
Spine  5.38343 -3.57312 -7.95962
Spine1  17.7018 -5.84316 4.39901
HEad  -21.0883 -36.0793 19.2454
LeftShoulder1  1.62654 -3.08175 -18.1054
LeftArm  54.1822 -44.9376 -90.0729
LeftForeArm  108.875 -77.1666 -123.521
LeftHand  -0.138369 4.71984 23.1797
RightShoulder  3.06457 5.51436 28.0263
RightArm  -18.9703 0.662209 30.2483
RightForeArm  8.80887 7.5474 11.2886
RightHand  -0.370539 -2.62464 -15.249
LeftUpLeg  5.15731 14.252 11.2598
LeftLeg  31.2626 -8.38595 -5.10841
LeftFoot  -23.1424 -1.93739 -19.9041
LeftToes  -6.27559e-011 -2.10356e-011 8.24929e-012
50
root  2.74781 36.5928 34.6397 -166.633 -65.3211 163.548
RightUpLeg  -19.1496 -18.9418 -28.1989
RightLeg  5.83135 -10.6248 -1.04153
RightFoot  -2.26485 0.0974014 -1.32887
RightToes  -1.74623e-010 0 -2.59999e-017
Spine  5.27522 -2.80313 -6.34873
Spine1  18.2776 -4.60976 3.29004
HEad  -24.0374 -38.7406 22.2502
LeftShoulder1  1.61762 -2.92971 -18.5862
LeftArm  52.9593 -42.9693 -87.9366
LeftForeArm  111.305 -77.0469 -124.75
LeftHand  -0.174174 4.51399 22.3145
RightShoulder  3.38959 5.77989 30.6174
RightArm  -14.6216 -8.25211 31.9436
RightForeArm  10.4116 13.7663 9.00187
RightHand  -0.617889 -1.33179 -17.5932
LeftUpLeg  2.6341 15.5235 10.0425
LeftLeg  32.3069 -10.0106 -6.39796
LeftFoot  -24.2951 -1.85543 -17.4909
LeftToes  -6.27559e-011 -2.10356e-011 8.24929e-012
51
root  2.46172 37.38 35.0898 -169.239 -65.4146 166.878
RightUpLeg  -18.069 -18.7079 -26.3412
RightLeg  5.83894 -7.26853 0.389597
RightFoot  -1.95409 -0.14639 1.53267
RightToes  -1.74623e-010 0 -2.59999e-017
Spine  4.68577 -2.46087 -4.95613
Spine1  17.502 -4.10717 3.17419
HEad  -22.3042 -39.1446 20.7584
LeftShoulder1  1.60933 -2.77977 -19.0873
LeftArm  47.2397 -37.2038 -82.267
LeftForeArm  114.83 -76.2545 -129.148
LeftHand  -0.109223 4.81803 20.829
RightShoulder  3.468 5.86793 31.1149
RightArm  -6.33958 -16.4682 35.481
RightForeArm  7.63562 17.3434 7.45698
RightHand  -0.75569 0.284972 -15.7925
LeftUpLeg  3.41361 14.7341 10.2096
LeftLeg  29.1624 -10.1169 -5.72028
LeftFoot  -20.4259 -1.39028 -18.9783
LeftToes  -6.27559e-011 -2.10356e-011 8.24929e-012
52
root  2.09787 38.6052 35.0359 -172.332 -65.845 170.281
RightUpLeg  -18.1804 -19.927 -22.4618
RightLeg  12.0766 -1.85973 -0.0117969
RightFoot  5.246 -0.491721 3.61951
RightToes  -1.74623e-010 0 -2.59999e-017
Spine  4.01123 -2.81671 -5.13955
Spine1  16.5653 -4.99023 4.87024
HEad  -18.9329 -38.3586 18.2735
LeftShoulder1  1.58578 -2.78361 -18.6684
LeftArm  42.8619 -31.1002 -78.8637
LeftForeArm  114.237 -75.67 -131.308
LeftHand  -0.0471781 5.16661 21.3717
RightShoulder  3.41755 5.84743 30.6502
RightArm  1.92 -22.5762 37.5783
RightForeArm  5.54932 18.2392 7.2477
RightHand  -0.232573 -0.884831 -5.46886
LeftUpLeg  4.89862 12.8408 10.7519
LeftLeg  24.8104 -7.94607 -3.66388
LeftFoot  -12.3406 -0.0967789 -19.5695
LeftToes  -6.27559e-011 -2.10356e-011 8.24929e-012
53
root  1.78977 39.8541 34.6884 -172.554 -66.4462 170.126
RightUpLeg  -17.8677 -19.185 -20.7592
RightLeg  20.1259 4.63093 1.67213
RightFoot  12.3235 -1.11478 5.7238
RightToes  -1.74623e-010 0 -2.59999e-017
Spine  3.80747 -3.5126 -6.68852
Spine1  15.4894 -6.02395 5.58753
HEad  -16.1968 -37.5495 17.0036
LeftShoulder1  1.56041 -2.79114 -18.2006
LeftArm  40.9702 -27.9971 -76.0246
LeftForeArm  115.221 -75.331 -132.735
LeftHand  -0.0648626 5.07825 22.1511
RightShoulder  3.52786 5.9454 31.4475
RightArm  6.57231 -26.9355 37.5702
RightForeArm  6.356 17.9761 7.58389
RightHand  0.100371 -2.64318 4.96998
LeftUpLeg  5.63545 12.2865 10.7352
LeftLeg  21.8937 -6.48837 -2.52352
LeftFoot  -0.890172 1.73558 -18.7743
LeftToes  -6.27559e-011 -2.10356e-011 8.24929e-012
54
root  1.55075 40.8042 34.3496 -171.561 -66.7394 168.576
RightUpLeg  -16.9568 -16.8069 -20.4793
RightLeg  25.8384 10.1458 5.07556
RightFoot  15.8206 -1.6345 7.22924
RightToes  -1.74623e-010 0 -2.59999e-017
Spine  3.97505 -4.12489 -7.45839
Spine1  14.5044 -6.58423 5.37282
HEad  -14.4155 -36.8949 15.9117
LeftShoulder1  1.5173 -2.65563 -18.0325
LeftArm  40.0075 -27.568 -72.6017
LeftForeArm  120.122 -74.4929 -136.4
LeftHand  -0.0679374 5.05242 21.0513
RightShoulder  3.60768 6.05032 31.8765
RightArm  6.32472 -29.9026 37.7336
RightForeArm  8.89147 15.649 9.26933
RightHand  0.0945776 -3.33928 6.58462
LeftUpLeg  5.19886 12.0671 10.2926
LeftLeg  21.2364 -5.8883 -2.19626
LeftFoot  10.1044 3.36747 -17.9812
LeftToes  -6.27559e-011 -2.10356e-011 8.24929e-012
55
root  1.37631 41.1894 34.134 -171.991 -67.0397 168.568
RightUpLeg  -15.9089 -13.1536 -19.9488
RightLeg  28.5915 10.1335 5.70437
RightFoot  17.233 -1.27677 5.49151
RightToes  -1.74623e-010 0 -2.59999e-017
Spine  4.18802 -4.43728 -6.62588
Spine1  14.3061 -6.68054 5.04581
HEad  -14.3883 -36.5836 15.4354
LeftShoulder1  1.44135 -2.47975 -17.4401
LeftArm  39.8571 -29.0691 -71.279
LeftForeArm  122.568 -73.5825 -139.389
LeftHand  -0.0256871 5.28384 20.2357
RightShoulder  3.51926 6.04446 30.963
RightArm  8.39968 -31.7127 38.6906
RightForeArm  9.89691 14.2194 10.4157
RightHand  0.0399907 -3.48477 3.78268
LeftUpLeg  3.94396 10.475 10.1403
LeftLeg  22.3443 -3.69961 -1.32059
LeftFoot  14.0224 3.69293 -16.7035
LeftToes  -6.27559e-011 -2.10356e-011 8.24929e-012
56
root  1.24268 41.0077 33.8336 -172.16 -66.5777 167.952
RightUpLeg  -14.6874 -8.68704 -19.7454
RightLeg  29.9838 6.47445 3.79901
RightFoot  16.5055 -0.745306 3.42614
RightToes  -1.74623e-010 0 -2.59999e-017
Spine  4.83324 -4.12815 -6.68755
Spine1  14.3119 -6.20424 4.16738
HEad  -15.7781 -36.2876 15.9156
LeftShoulder1  1.36532 -2.32815 -16.7047
LeftArm  39.9523 -31.4452 -71.7682
LeftForeArm  123.8 -73.0346 -140.968
LeftHand  -0.00276366 5.41587 20.3548
RightShoulder  3.46426 6.04094 30.3926
RightArm  15.8293 -32.2984 38.2571
RightForeArm  8.17117 16.284 9.21054
RightHand  0.0340596 -3.04999 2.58909
LeftUpLeg  3.68213 8.83549 10.0548
LeftLeg  21.1373 -1.09944 -0.125664
LeftFoot  10.9679 2.72073 -14.0362
LeftToes  -6.27559e-011 -2.10356e-011 8.24929e-012
